<?xml version="1.0" encoding="UTF-8"?>
<svg width="36px" height="28px" viewBox="0 0 36 28" version="1.1" xmlns="http://www.w3.org/2000/svg" xmlns:xlink="http://www.w3.org/1999/xlink">
    <title>Group</title>
    <g id="Page-1" stroke="none" stroke-width="1" fill="none" fill-rule="evenodd">
        <g id="discord" fill="#FFFFFF" fill-rule="nonzero">
            <g id="Group" transform="translate(0.000000, 0.000000)">
                <path d="M30.4953771,2.345 C28.1649788,1.2495 25.6733807,0.45334 23.0683826,0 C22.7483828,0.581166 22.3745831,1.362848 22.1169833,1.984672 C19.3477254,1.566238 16.6040074,1.566238 13.8857294,1.984672 C13.6280697,1.362848 13.2458299,0.581166 12.9230301,0 C10.3152121,0.45334 7.82063397,1.252424 5.4902757,2.3508 C0.789963203,9.48738 -0.484215848,16.44668 0.152874678,23.3072 C3.27037735,25.6464 6.2916151,27.0672 9.26185289,27.9972 C9.99523235,26.983 10.6492919,25.905 11.2127514,24.7688 C10.1396122,24.359 9.111793,23.8534 8.14061372,23.2666 C8.39825354,23.0748 8.65027335,22.8742 8.89377317,22.668 C14.8172887,25.4516 21.2533839,25.4516 27.1061795,22.668 C27.3523794,22.8742 27.6043793,23.0748 27.8591791,23.2666 C26.8851797,23.8564 25.8545805,24.362 24.7813813,24.7718 C25.3449809,25.905 25.9961804,26.986 26.7323798,28 C29.7053776,27.0702 32.7293754,25.6492 35.846973,23.3072 C36.5945725,15.35412 34.5699741,8.45872 30.4953771,2.345 Z M12.0197509,19.08804 C10.2415722,19.08804 8.78331325,17.4201 8.78331325,15.38898 C8.78331325,13.35784 10.2104322,11.68704 12.0197509,11.68704 C13.8291294,11.68704 15.2873284,13.35492 15.2561885,15.38898 C15.2590084,17.4201 13.8291294,19.08804 12.0197509,19.08804 Z M23.9801819,19.08804 C22.2019832,19.08804 20.7435843,17.4201 20.7435843,15.38898 C20.7435843,13.35784 22.1707833,11.68704 23.9801819,11.68704 C25.7893805,11.68704 27.2475794,13.35492 27.2165795,15.38898 C27.2165795,17.4201 25.7893805,19.08804 23.9801819,19.08804 Z" id="Shape"></path>
            </g>
        </g>
    </g>
</svg>