<?xml version="1.0" encoding="UTF-8"?>
<svg width="277px" height="41px" viewBox="0 0 277 41" version="1.1" xmlns="http://www.w3.org/2000/svg" xmlns:xlink="http://www.w3.org/1999/xlink">
    <title>logo-large-latest</title>
    <g id="Page-1" stroke="none" stroke-width="1" fill="none" fill-rule="evenodd">
        <g id="logo-large-latest" transform="translate(0.000000, 0.000000)" fill="#FFFFFF" fill-rule="nonzero">
            <g id="VerticalCrypto_White_Art" transform="translate(0.000000, -0.000000)">
                <path d="M11.5132707,30.2257997 C11.6962025,30.3737423 11.8448346,30.4989244 12.0049,30.646867 C12.2335647,30.5672056 12.4965292,30.5216848 12.7023275,30.3965027 C13.0453246,30.1916591 13.3768885,29.9412948 13.4912209,29.5316078 C13.9028175,28.1204635 14.554512,26.7889806 15.080441,25.4233572 C15.1261739,25.3095552 15.1833401,25.2071334 15.2519396,25.1160919 C15.4691711,24.8088266 15.6292364,24.4901811 15.6521029,24.1032545 C15.6864026,23.5797655 15.8922009,23.1017972 16.0979992,22.623829 C16.280931,22.1913816 16.4409963,21.7361738 16.6239281,21.2923461 C16.7839935,20.8826591 16.955492,20.472972 17.1155574,20.063285 C17.2756227,19.6308376 17.4242548,19.1870099 17.5957534,18.7545625 C17.7443855,18.379016 17.9044508,18.0148498 18.0759494,17.6279231 C18.0645161,17.3775588 18.0302164,17.0930539 18.0302164,16.808549 C18.0302164,16.6833669 18.0645161,16.5468045 18.1216823,16.4443828 C18.2474479,16.1940185 18.39608,15.9550343 18.5218457,15.7274304 C18.5104124,15.4201652 18.4875459,15.1470405 18.4761127,14.8511554 C18.7619437,14.6463118 19.0477746,14.4528485 19.356472,14.2366248 C19.4708044,13.8041774 19.59657,13.3489695 19.7223356,12.9051419 C19.7680686,12.7571994 19.8138016,12.620637 19.8938342,12.4954549 C20.3282973,11.8240233 20.6712944,11.0956908 21.0028583,10.3673583 C21.2658228,9.78696829 21.6088199,9.2407189 21.9175174,8.68308931 C22.0089833,8.52376657 22.1118824,8.37582402 22.2033483,8.21650128 C22.4320131,7.80681424 22.6492446,7.3743668 22.9007758,6.96467976 C23.1523071,6.56637291 23.438138,6.20220665 23.723969,5.81527999 C23.7125357,5.56491569 23.6896693,5.29179099 23.6668028,4.98452571 C23.7925684,4.7341614 23.918334,4.44965651 24.0783993,4.18791201 C24.3413638,3.76684477 24.4328297,3.31163694 24.4785627,2.83366873 C24.5242956,2.25327875 24.7643936,1.80945111 25.2903226,1.52494622 C25.358922,1.49080563 25.4160882,1.43390466 25.4732544,1.39976407 C25.6333197,1.09249879 25.7590853,0.785233502 25.9534504,0.512108806 C26.079216,0.330025675 26.2964475,0.216223718 26.4679461,0.0796613698 C26.6966109,0.0569009784 26.9138424,0.0341405871 27.1539404,0 C27.3483054,0.136562348 27.565537,0.273124696 27.805635,0.432447436 C27.8742344,0.625910763 27.954267,0.842134481 28,1.00145722 C27.9885668,1.5932274 27.7027358,2.00291444 27.3597387,2.3670807 C27.0053083,2.75400736 26.7652103,3.1750746 26.5708452,3.65304281 C26.2964475,4.34723475 25.9763169,5.0186663 25.5647203,5.64457706 C25.0845243,6.38428978 24.6957942,7.19228367 24.4785627,8.05717854 C24.3642303,8.48962598 24.204165,8.92207342 24.0326664,9.34314066 C23.3695386,10.9249879 22.6949775,12.5068351 21.9289506,14.0545417 C21.6545529,14.6121713 21.5059208,15.2039414 21.3801552,15.8070918 C21.1629236,16.8313094 20.9342589,17.855527 20.7398938,18.8797446 C20.602695,19.596697 20.5112291,20.3364097 20.3854635,21.053362 C20.1910984,22.1800014 19.9738669,23.3066408 19.7680686,24.4332801 C19.7452021,24.5357019 19.7223356,24.6495039 19.7223356,24.7519256 C19.7223356,25.4347374 19.6194365,26.1061689 19.4250715,26.7662202 C19.3107391,27.1531469 19.2192732,27.5400736 19.1392405,27.9270002 C18.9563087,28.7236139 18.6704777,29.4747068 18.3046141,30.2030393 C18.0645161,30.6923878 17.8244181,31.170356 17.5728869,31.6483242 C17.3556554,32.0580112 17.1612903,32.4790785 17.0698244,32.9456665 C17.0469579,33.0253279 17.0240915,33.1163694 16.9897918,33.1846506 C16.6582278,33.7764208 16.3380972,34.3909514 15.7893018,34.8233988 C15.6063699,34.9713413 15.4920376,35.1648047 15.4234381,35.3810284 C15.2519396,35.9158976 14.9889751,36.3938658 14.6231115,36.814933 C14.5316456,36.9173548 14.4744794,37.0539171 14.4516129,37.1904795 C14.314414,37.8732912 14.120049,38.5333426 13.8570845,39.1706335 C13.7884851,39.3299563 13.6970192,39.4665186 13.5712536,39.5917008 C12.5879951,40.479356 12.5879951,40.479356 11.3760719,40.9914649 C11.3532054,41.002845 11.3303389,41.002845 11.3760719,40.9914649 C10.564312,40.9914649 9.86688444,40.7638609 9.1923234,40.3655541 C9.0436913,40.1038096 8.87219273,39.7965443 8.7121274,39.489279 C8.67782768,39.432378 8.66639445,39.3640969 8.64352797,39.3071959 C8.48346264,38.6357643 8.41486321,37.9643328 8.44916292,37.2815211 C8.44916292,37.1904795 8.48346264,37.0880577 8.51776235,36.9970162 C8.59779502,36.7580321 8.68926092,36.5076678 8.78072683,36.2800638 C8.59779502,35.7338144 8.43772969,35.1989453 8.24336464,34.6754562 C8.01469988,34.0609257 8.02613312,33.4236347 8.00326664,32.7863438 C8.00326664,32.6384012 8.01469988,32.4790785 8.02613312,32.3311359 C8.08329931,31.7848865 8.06043283,31.2613975 7.88893426,30.7265283 C7.82033483,30.5103046 7.80890159,30.2599403 7.79746835,30.0209562 C7.78603512,29.7023107 7.79746835,29.3722851 7.79746835,29.0422594 C7.6602695,28.8374159 7.52307064,28.6211921 7.39730502,28.4163486 C7.40873826,28.2115051 7.39730502,27.9952814 7.43160474,27.8018181 C7.46590445,27.5855943 7.43160474,27.392131 7.34013883,27.2100479 C7.00857493,26.4703352 6.8485096,25.6623413 6.63127807,24.888488 C6.52837893,24.5470821 6.4597795,24.194296 6.24254798,23.8984109 C6.02531646,23.5911457 5.92241731,23.2383596 5.85381788,22.8741933 C5.78521846,22.4986469 5.72805227,22.1231004 5.62515312,21.7589341 C5.48795427,21.3037263 5.51082074,20.8598987 5.60228665,20.4160711 C5.63658636,20.2567483 5.65945284,20.0974256 5.69375255,19.9039623 C5.4079216,19.6422178 5.11065741,19.3690931 4.85912617,19.1414891 C4.73336056,18.7204219 4.63046141,18.3676358 4.53899551,18.0148498 C4.47039608,17.7417251 4.37893018,17.4799806 4.19599837,17.2523767 C3.8758677,16.8540698 3.70436913,16.3874818 3.6357697,15.8981334 C3.60146999,15.6932898 3.52143732,15.5112067 3.38423846,15.3405038 C3.04124132,14.9194365 2.70967742,14.4869891 2.35524704,14.0886823 C2.08084933,13.781417 1.78358514,13.4969121 1.47488771,13.2237874 C1.2919559,13.0530844 1.12045733,12.8710013 0.983258473,12.6661578 C0.663127807,12.154049 0.320130666,11.6533204 0,11.1525918 C0.0342997142,10.4470196 0.160065333,9.77558809 0.445896284,9.12691694 C0.514495713,8.97897439 0.605961617,8.84241205 0.685994283,8.71722989 C1.07472438,8.14822011 1.65781952,7.84095483 2.22948142,7.49954896 C2.53817885,7.49954896 2.85830951,7.49954896 3.16700694,7.49954896 C3.25847285,7.49954896 3.36137199,7.51092915 3.45283789,7.55644993 C4.16169865,7.86371522 4.85912617,8.1823607 5.5565537,8.50100618 C5.63658636,8.53514676 5.69375255,8.60342794 5.76235198,8.64894872 C5.80808493,8.6944695 5.84238465,8.75137048 5.89955084,8.79689126 C6.75704369,9.54798418 7.13434055,10.583582 7.54593712,11.5850392 C7.63740302,11.8012629 7.62596978,12.0516272 7.67170274,12.2792311 C7.83176807,13.0986052 7.76316864,13.9407397 7.78603512,14.771494 C7.78603512,14.9877177 7.83176807,15.2039414 7.88893426,15.408785 C8.25479788,16.6037055 8.7121274,17.7531053 9.23805635,18.8797446 C9.46672111,19.3577129 9.60391997,19.8470613 9.68395263,20.3591701 C9.84401797,21.3151065 9.99265006,22.2824231 10.1641486,23.2383596 C10.2098816,23.5114843 10.3013475,23.784609 10.3928134,24.0463535 C10.7358105,25.1047117 10.9530421,26.1972105 11.1359739,27.3010894 C11.2160065,27.8018181 11.2503062,28.3139269 11.3189057,28.8146555 C11.3646386,29.3153841 11.4446713,29.7705919 11.5132707,30.2257997 Z" id="Path"></path>
                <g id="Group" transform="translate(24.000000, 18.000000)">
                    <path d="M10.3955502,9.40220241 L10.3955502,11.9286838 C10.3955502,12.2055585 10.2934105,12.4593603 10.0891311,12.6670163 C9.88485175,12.8746723 9.64652582,12.9785003 9.36280447,12.9785003 L2.07684026,12.9785003 L2.07684026,13.5899318 C2.07684026,13.9475616 2.22437536,14.2475092 2.53079442,14.501311 L3.13228368,15.0089145 C3.46140044,15.2627163 3.76781949,15.3896172 4.0628897,15.3896172 L9.36280447,15.3896172 C9.63517696,15.3896172 9.88485175,15.4934452 10.0891311,15.6895648 C10.2934105,15.8972208 10.3955502,16.1394861 10.3955502,16.4278972 C10.3955502,16.7047719 10.2934105,16.9585737 10.0777823,17.1662297 C9.87350289,17.3738857 9.63517696,17.4777137 9.36280447,17.4777137 L3.92670345,17.4777137 C3.56354012,17.4777137 3.18902795,17.3969586 2.79181806,17.2469848 C2.39460817,17.097011 2.09953797,16.9355008 1.91795631,16.7624541 L0.998699143,15.9433665 C0.714977796,15.7126377 0.476651864,15.3896172 0.283721348,14.9743052 C0.0907908312,14.5589932 0,14.1782905 0,13.8321972 L0,9.03303618 C0,8.75616151 0.102139685,8.38699528 0.317767909,7.92553749 C0.522047279,7.46407971 0.794419773,7.09491348 1.11218768,6.84111169 L1.97470058,6.16046146 C2.54214327,5.69900367 3.16633024,5.46827478 3.84726147,5.46827478 L6.74121922,5.46827478 C7.46754587,5.46827478 8.15982595,5.77975878 8.79536177,6.39119035 L9.56708384,7.14105926 C10.1118288,7.63712638 10.3955502,8.39853173 10.3955502,9.40220241 Z M2.11088683,9.24069219 L2.11088683,10.8557944 L8.36410532,10.8557944 L8.36410532,9.40220241 C8.36410532,9.00996329 8.25061679,8.71001573 8.01229085,8.50235973 L7.4108016,7.97168327 C7.10438254,7.71788149 6.82066119,7.5909806 6.58233526,7.5909806 L3.99479657,7.5909806 C3.67702866,7.5909806 3.38195846,7.70634504 3.12093482,7.92553749 L2.51944557,8.43314106 C2.24707307,8.64079706 2.11088683,8.90613529 2.11088683,9.24069219 Z" id="Shape"></path>
                    <path d="M15.1847665,16.4394337 L15.1847665,6.5065548 C15.1847665,6.21814368 15.2869062,5.9643419 15.4798367,5.75668589 C15.6841161,5.54902989 15.922442,5.43366544 16.2061634,5.43366544 C16.4898847,5.43366544 16.7395595,5.53749345 16.93249,5.74514945 C17.1367694,5.95280545 17.2275602,6.20660724 17.2275602,6.5065548 L17.2275602,7.81017305 L18.9071906,6.35658102 C19.5994707,5.75668589 20.2804019,5.45673833 20.9386354,5.45673833 L22.448033,5.45673833 C23.2991971,5.45673833 24.0255237,5.76822234 24.627013,6.37965391 C25.2285022,6.99108547 25.5349213,7.72941793 25.5349213,8.59465128 L25.5349213,9.15993707 C25.5349213,9.45988464 25.4327816,9.71368642 25.2398511,9.92134242 C25.0355717,10.1289984 24.7972458,10.2328264 24.5135244,10.2328264 C24.2298031,10.2328264 23.9801283,10.1289984 23.7871978,9.93287887 C23.5829184,9.72522286 23.4921276,9.48295752 23.4921276,9.19454641 L23.4921276,8.60618773 C23.4921276,8.31777661 23.3899879,8.06397483 23.1970574,7.86785527 C22.992778,7.66019927 22.7544521,7.56790771 22.4707307,7.56790771 L21.131566,7.56790771 C20.8478446,7.56790771 20.5300767,7.71788149 20.1782622,8.0293655 L17.2502579,10.6135291 L17.2502579,16.4625066 C17.2502579,16.7509177 17.1481182,17.0047195 16.9438389,17.200839 C16.7395595,17.408495 16.5012336,17.5007866 16.2175122,17.5007866 C15.9337909,17.5007866 15.6841161,17.3969586 15.4911856,17.200839 C15.2869062,16.9816466 15.1847665,16.7393812 15.1847665,16.4394337 Z" id="Path"></path>
                    <path d="M37.5874041,17.4892501 L35.5332616,17.4892501 C34.6820975,17.4892501 33.9557709,17.1777661 33.3429328,16.5663346 C32.7300946,15.954903 32.4236756,15.2165705 32.4236756,14.3513372 L32.4236756,7.55637126 L31.3682322,7.55637126 C31.0845108,7.55637126 30.834836,7.45254326 30.6419055,7.2564237 C30.4376262,7.06030414 30.3468353,6.80650236 30.3468353,6.5065548 C30.3468353,6.21814368 30.448975,5.9643419 30.6419055,5.76822234 C30.8461849,5.56056633 31.0845108,5.46827478 31.3682322,5.46827478 L32.4463733,5.46827478 L32.4463733,2.89564761 C32.4463733,2.6072365 32.548513,2.35343471 32.7414435,2.15731515 C32.9457229,1.94965915 33.1840488,1.85736759 33.4677702,1.85736759 C33.7401426,1.85736759 33.9784686,1.9611956 34.1827479,2.1688516 C34.3870273,2.3765076 34.5005159,2.61877294 34.5005159,2.90718406 L34.5005159,5.47981122 L38.6428475,5.47981122 C38.91522,5.47981122 39.1648948,5.58363922 39.3691742,5.79129523 C39.5734536,5.99895123 39.6755932,6.24121657 39.6755932,6.52962769 C39.6755932,6.8180388 39.5734536,7.07184059 39.3691742,7.26796015 C39.1648948,7.47561615 38.9265689,7.56790771 38.6428475,7.56790771 L34.4778181,7.56790771 L34.4778181,14.3628736 C34.4778181,14.6397483 34.5799578,14.8935501 34.7955861,15.1012061 C34.9998654,15.3088621 35.2495402,15.4126901 35.5332616,15.4126901 L37.5420087,15.4126901 C38.0867537,15.4126901 38.449917,15.1127425 38.6314987,14.5128474 C38.8130803,13.9129523 39.153546,13.6130047 39.6755932,13.6130047 C39.9820123,13.6130047 40.2203382,13.7168327 40.4132687,13.9129523 C40.6061993,14.1206083 40.6969901,14.3744101 40.6969901,14.6743576 C40.6969901,15.3088621 40.4019199,15.9318301 39.8231283,16.5663346 C39.2443368,17.1777661 38.4953124,17.4892501 37.5874041,17.4892501 Z" id="Path"></path>
                    <path d="M53.827614,17.4661772 L47.5516978,17.4661772 C47.2679765,17.4661772 47.0183017,17.3623492 46.8253712,17.1662297 C46.6210918,16.9585737 46.530301,16.7163083 46.530301,16.4278972 C46.530301,16.1510225 46.6324407,15.8972208 46.8253712,15.6895648 C47.0296506,15.4819088 47.2679765,15.3780808 47.5516978,15.3780808 L49.6625847,15.3780808 L49.6625847,7.56790771 L47.5743956,7.56790771 C47.2906742,7.56790771 47.0409994,7.46407971 46.8480689,7.2564237 C46.6437895,7.0487677 46.5529987,6.80650236 46.5529987,6.51809124 C46.5529987,6.22968013 46.6551384,5.97587834 46.8480689,5.76822234 C47.0523483,5.56056633 47.2906742,5.44520189 47.5743956,5.44520189 L50.7180281,5.44520189 C51.0017494,5.44520189 51.2514242,5.54902989 51.4443547,5.76822234 C51.6486341,5.97587834 51.7394249,6.22968013 51.7394249,6.51809124 L51.7394249,15.3665443 L53.7935675,15.3665443 C54.0772888,15.3665443 54.3269636,15.4703723 54.531243,15.6664919 C54.7355224,15.8741479 54.8490109,16.1164132 54.8490109,16.4048243 C54.8490109,16.6932354 54.7468712,16.9470372 54.5425918,17.1431568 C54.3496613,17.3623492 54.1113354,17.4661772 53.827614,17.4661772 Z M49.639887,0 L50.7180281,0 C51.0017494,0 51.2514242,0.103828002 51.4443547,0.299947562 C51.6486341,0.507603566 51.7394249,0.749868904 51.7394249,1.03828002 L51.7394249,1.93812271 C51.7394249,2.22653382 51.6372852,2.48033561 51.4443547,2.68799161 C51.2400754,2.89564761 51.0017494,3.01101206 50.7180281,3.01101206 L49.6171893,3.01101206 C49.3221191,3.01101206 49.0724443,2.90718406 48.8795137,2.68799161 C48.6752344,2.46879916 48.5844435,2.22653382 48.5957924,1.9611956 L48.6184901,1.03828002 C48.6184901,0.749868904 48.7206298,0.496067121 48.9135603,0.299947562 C49.1064908,0.103828002 49.3561656,0 49.639887,0 Z" id="Shape"></path>
                    <path d="M70.0451263,17.4892501 L65.641771,17.4892501 C64.8700489,17.4892501 64.2004665,17.2469848 63.6557215,16.7739906 L61.6583232,15.0089145 C61.0227874,14.4667016 60.7050195,13.7399056 60.7050195,12.81699 L60.7050195,10.0828526 C60.670973,9.19454641 61.0341363,8.42160461 61.7831606,7.76402727 L63.5876284,6.18353435 C64.16642,5.69900367 64.7906069,5.45673833 65.4488404,5.45673833 L70.067824,5.45673833 C70.3515453,5.45673833 70.6012201,5.56056633 70.7941506,5.75668589 C70.99843,5.9643419 71.0892208,6.20660724 71.0892208,6.49501835 C71.0892208,6.79496592 70.9870811,7.0487677 70.7941506,7.24488726 C70.5898713,7.44100682 70.3515453,7.54483482 70.067824,7.54483482 L65.641771,7.54483482 C65.3693985,7.54483482 65.097026,7.66019927 64.8473512,7.87939171 L63.2017674,9.3214473 C62.9293949,9.55217619 62.7932086,9.8636602 62.7932086,10.2558993 L62.7932086,12.8054536 C62.7932086,13.0823283 62.8953483,13.3130572 63.1109765,13.4976403 L64.9267932,15.0665967 C65.1537702,15.2742528 65.4601893,15.3780808 65.8347015,15.3780808 L70.0564751,15.3780808 C70.3288476,15.3780808 70.5785224,15.4819088 70.7828018,15.6780283 C70.9870811,15.8856843 71.0892208,16.1279497 71.0892208,16.4163608 C71.0892208,16.7047719 70.9870811,16.9585737 70.7941506,17.1546932 C70.5785224,17.3854221 70.3401965,17.4892501 70.0451263,17.4892501 Z" id="Path"></path>
                    <path d="M78.91993,9.93287887 L82.960122,9.93287887 C83.1757502,9.93287887 83.504867,9.97902465 83.9134257,10.0828526 L83.890728,8.59465128 C83.890728,8.30624017 83.7885883,8.05243838 83.584309,7.85631883 C83.3800296,7.64866282 83.1417037,7.55637126 82.8579823,7.55637126 L78.9426277,7.55637126 C78.6589064,7.55637126 78.4205805,7.45254326 78.2163011,7.24488726 C78.0120217,7.03723125 77.909882,6.79496592 77.909882,6.5065548 C77.909882,6.21814368 78.0120217,5.9643419 78.2049522,5.76822234 C78.4092316,5.56056633 78.6475575,5.46827478 78.9312789,5.46827478 L82.8466335,5.46827478 C83.6977975,5.46827478 84.4241242,5.76822234 85.0256134,6.37965391 C85.6271027,6.99108547 85.9448706,7.72941793 85.9675683,8.60618773 L86.2285919,16.4394337 C86.2285919,16.7278448 86.1264522,16.9816466 85.9221729,17.1777661 C85.7178935,17.3854221 85.4795676,17.4777137 85.1958462,17.4777137 C84.900776,17.4777137 84.6511012,17.3738857 84.4468219,17.1777661 C84.2425425,16.9701101 84.1404028,16.7278448 84.1404028,16.4394337 L82.3926793,17.4892501 L78.9085812,17.4892501 C78.0460683,17.4892501 77.3083928,17.1777661 76.6955547,16.5663346 C76.0940654,15.954903 75.7876463,15.2050341 75.7876463,14.3282643 L75.7876463,13.1054012 C75.7876463,12.2286314 76.0940654,11.4902989 76.7069035,10.8673309 C77.3197416,10.2443629 78.0574171,9.93287887 78.91993,9.93287887 Z M84.0723097,14.0167803 L84.0155654,13.128474 C84.0042166,12.8285265 83.9020769,12.5747247 83.7091464,12.3786051 C83.5162159,12.1824856 83.2665411,12.0786576 82.9828197,12.0786576 L78.91993,12.0786576 C78.6362087,12.0786576 78.3865339,12.1824856 78.1936034,12.3786051 C77.989324,12.5862611 77.8985332,12.8285265 77.8985332,13.1169376 L77.8985332,14.293655 C77.8985332,14.5705296 78.0006729,14.8243314 78.2049522,15.0319874 C78.4092316,15.2396434 78.6475575,15.3434714 78.9312789,15.3434714 L81.8365855,15.3434714 L84.0723097,14.0167803 Z" id="Shape"></path>
                    <path d="M99.3251693,17.4892501 L93.0946485,17.4892501 C92.8109272,17.4892501 92.5612524,17.3854221 92.3683219,17.1662297 C92.1640425,16.9585737 92.0732517,16.7047719 92.0732517,16.4163608 C92.0732517,16.1394861 92.1753914,15.8856843 92.3683219,15.6780283 C92.5726013,15.4703723 92.8109272,15.3665443 93.0946485,15.3665443 L95.1487911,15.3665443 L95.1487911,3.02254851 L93.060602,3.02254851 C92.7768806,3.02254851 92.5272058,2.9187205 92.3342753,2.72260094 C92.129996,2.51494494 92.0392051,2.2726796 92.0392051,1.98426848 C92.0392051,1.69585737 92.1413448,1.44205558 92.3342753,1.24593603 C92.5385547,1.03828002 92.7768806,0.945988464 93.060602,0.945988464 L96.2042345,0.945988464 C96.476607,0.945988464 96.7262818,1.04981647 96.9305612,1.25747247 C97.1348405,1.46512847 97.2369802,1.70739381 97.2369802,1.99580493 L97.2369802,15.3665443 L99.3251693,15.3665443 C99.5975418,15.3665443 99.8472166,15.4703723 100.051496,15.6780283 C100.255775,15.8856843 100.357915,16.1279497 100.357915,16.4163608 C100.357915,16.7047719 100.255775,16.9585737 100.062845,17.1662297 C99.8585655,17.3854221 99.6088907,17.4892501 99.3251693,17.4892501 Z" id="Path"></path>
                    <path d="M111.831606,15.4011536 L115.55403,15.4011536 C115.837752,15.4011536 116.087427,15.5049816 116.291706,15.7011012 C116.495985,15.9087572 116.609474,16.1510225 116.609474,16.4394337 C116.609474,16.7278448 116.507334,16.9816466 116.291706,17.1777661 C116.087427,17.3854221 115.837752,17.4777137 115.55403,17.4777137 L111.706769,17.4777137 C111.218768,17.4777137 110.70807,17.3162035 110.186023,17.0047195 C109.663975,16.6932354 109.300812,16.3356057 109.096533,15.9433665 L106.713273,11.2711064 C106.395505,10.6019927 106.236621,9.90980598 106.236621,9.20608285 C106.236621,8.42160461 106.384156,7.75249082 106.690576,7.17566859 L109.096533,2.54955427 C109.32351,2.12270582 109.675324,1.74200315 110.163325,1.40744625 C110.639977,1.0844258 111.116629,0.91137913 111.559234,0.91137913 L115.633472,0.91137913 C115.917194,0.91137913 116.166869,1.01520713 116.359799,1.22286314 C116.564078,1.43051914 116.654869,1.67278448 116.654869,1.9611956 C116.654869,2.24960671 116.55273,2.5034085 116.359799,2.7110645 C116.15552,2.9187205 115.917194,3.03408495 115.633472,3.03408495 L111.706769,3.03408495 C111.377652,3.03408495 111.116629,3.23020451 110.912349,3.62244363 L108.63123,7.96014683 C108.449648,8.30624017 108.358857,8.69847929 108.358857,9.17147352 C108.358857,9.66754064 108.449648,10.0943891 108.653927,10.4635553 L110.832907,14.7205034 C111.025838,15.1819612 111.354954,15.4011536 111.831606,15.4011536 Z" id="Path"></path>
                    <path d="M121.341946,16.4394337 L121.341946,6.5065548 C121.341946,6.21814368 121.444086,5.9643419 121.637016,5.75668589 C121.841295,5.54902989 122.079621,5.43366544 122.363343,5.43366544 C122.647064,5.43366544 122.896739,5.53749345 123.089669,5.74514945 C123.293949,5.95280545 123.38474,6.20660724 123.38474,6.5065548 L123.38474,7.81017305 L125.06437,6.35658102 C125.75665,5.75668589 126.437581,5.45673833 127.095815,5.45673833 L128.605212,5.45673833 C129.456376,5.45673833 130.182703,5.76822234 130.784192,6.37965391 C131.385682,6.99108547 131.692101,7.72941793 131.692101,8.59465128 L131.692101,9.15993707 C131.692101,9.45988464 131.589961,9.71368642 131.39703,9.92134242 C131.192751,10.1289984 130.954425,10.2328264 130.670704,10.2328264 C130.386982,10.2328264 130.137308,10.1289984 129.944377,9.93287887 C129.740098,9.72522286 129.649307,9.48295752 129.649307,9.19454641 L129.649307,8.60618773 C129.649307,8.31777661 129.547167,8.06397483 129.354237,7.86785527 C129.149957,7.66019927 128.911631,7.56790771 128.62791,7.56790771 L127.288745,7.56790771 C127.005024,7.56790771 126.687256,7.71788149 126.335442,8.0293655 L123.407437,10.6135291 L123.407437,16.4625066 C123.407437,16.7509177 123.305298,17.0047195 123.101018,17.200839 C122.896739,17.408495 122.658413,17.5007866 122.374692,17.5007866 C122.09097,17.5007866 121.841295,17.3969586 121.648365,17.200839 C121.444086,16.9816466 121.341946,16.7393812 121.341946,16.4394337 Z" id="Path"></path>
                    <path d="M146.899565,8.52543262 L141.349975,21.2847404 C141.157045,21.7461982 140.839277,21.9653907 140.373974,21.9653907 L137.514063,21.9653907 C137.230341,21.9653907 136.980667,21.8615627 136.787736,21.6654431 C136.583457,21.4693235 136.492666,21.2155218 136.492666,20.9155742 C136.492666,20.6271631 136.594806,20.3848977 136.787736,20.1772417 C136.980667,19.9695857 137.230341,19.8772942 137.514063,19.8772942 L139.71574,19.8772942 L141.122998,16.5547981 L140.623649,16.5547981 C140.158346,16.5547981 139.81788,16.3125328 139.613601,15.8164657 L136.526712,8.51389617 L136.526712,6.49501835 C136.526712,6.20660724 136.628852,5.95280545 136.821783,5.75668589 C137.014713,5.54902989 137.253039,5.45673833 137.53676,5.45673833 C137.820482,5.45673833 138.070157,5.56056633 138.274436,5.75668589 C138.478715,5.9643419 138.592204,6.20660724 138.592204,6.49501835 L138.592204,8.05243838 L141.30458,14.4320923 L142.019558,14.4320923 L144.822725,8.07551127 L144.822725,6.47194546 C144.822725,6.19507079 144.924864,5.95280545 145.140493,5.74514945 C145.344772,5.53749345 145.594447,5.422129 145.878168,5.422129 C146.150541,5.422129 146.400215,5.525957 146.604495,5.733613 C146.808774,5.94126901 146.910914,6.18353435 146.910914,6.47194546 L146.910914,8.52543262 L146.899565,8.52543262 Z" id="Path"></path>
                    <path d="M153.754273,16.2894599 L153.754273,20.9271106 C153.754273,21.2270582 153.652133,21.48086 153.459202,21.688516 C153.254923,21.896172 153.016597,22 152.732876,22 C152.449154,22 152.19948,21.896172 151.9952,21.688516 C151.790921,21.48086 151.677432,21.2270582 151.677432,20.9271106 L151.677432,5.99895123 C151.677432,5.72207656 151.779572,5.46827478 151.983851,5.26061877 C152.188131,5.05296277 152.437806,4.94913477 152.732876,4.94913477 C153.005248,4.94913477 153.254923,5.05296277 153.459202,5.26061877 C153.663482,5.46827478 153.765621,5.71054012 153.765621,5.99895123 L153.765621,6.66806502 C154.764321,5.53749345 155.751671,4.97220766 156.716324,4.97220766 L157.192975,4.97220766 C157.919302,4.97220766 158.588884,5.24908233 159.201723,5.79129523 L160.915399,7.30256948 C161.664424,7.97168327 162.038936,8.81384373 162.038936,9.82905087 L162.038936,13.0938647 C162.038936,14.1206083 161.630377,14.9973781 160.824609,15.7011012 L159.144978,17.1662297 C158.588884,17.6853697 157.885255,17.9391715 157.034091,17.9391715 L156.580137,17.9391715 C155.774369,17.9391715 155.104786,17.6622968 154.548692,17.097011 L153.754273,16.2894599 Z M156.659579,15.8280021 L157.181627,15.8280021 C157.431301,15.8280021 157.703674,15.7011012 157.987395,15.4472994 L159.598932,14.0167803 C159.871305,13.7975878 160.007491,13.5091767 160.007491,13.128474 L160.007491,9.74829575 C160.007491,9.41373886 159.859956,9.12532774 159.553537,8.85998951 L157.828511,7.34871526 C157.635581,7.17566859 157.419952,7.08337703 157.192975,7.08337703 L156.591486,7.08337703 C156.364509,7.08337703 156.069439,7.27949659 155.694927,7.66019927 L154.162831,9.20608285 C153.890459,9.48295752 153.754273,9.78290509 153.754273,10.1289984 L153.754273,12.8054536 C153.754273,13.128474 153.901808,13.439958 154.208227,13.7514421 L155.694927,15.2627163 C156.05809,15.643419 156.387207,15.8280021 156.659579,15.8280021 Z" id="Shape"></path>
                    <path d="M174.068721,17.4892501 L172.014579,17.4892501 C171.163415,17.4892501 170.437088,17.1777661 169.82425,16.5663346 C169.211412,15.954903 168.904993,15.2165705 168.904993,14.3513372 L168.904993,7.55637126 L167.849549,7.55637126 C167.565828,7.55637126 167.316153,7.45254326 167.123223,7.2564237 C166.930292,7.06030414 166.828152,6.80650236 166.828152,6.5065548 C166.828152,6.21814368 166.930292,5.9643419 167.123223,5.76822234 C167.327502,5.56056633 167.565828,5.46827478 167.849549,5.46827478 L168.92769,5.46827478 L168.92769,2.89564761 C168.92769,2.6072365 169.02983,2.35343471 169.222761,2.15731515 C169.42704,1.94965915 169.665366,1.85736759 169.949087,1.85736759 C170.22146,1.85736759 170.459786,1.9611956 170.664065,2.1688516 C170.868344,2.3765076 170.981833,2.61877294 170.981833,2.90718406 L170.981833,5.47981122 L175.124165,5.47981122 C175.396537,5.47981122 175.646212,5.58363922 175.850491,5.79129523 C176.054771,5.99895123 176.15691,6.24121657 176.15691,6.52962769 C176.15691,6.8180388 176.054771,7.07184059 175.850491,7.26796015 C175.646212,7.47561615 175.407886,7.56790771 175.124165,7.56790771 L170.959135,7.56790771 L170.959135,14.3628736 C170.959135,14.6397483 171.061275,14.8935501 171.276903,15.1012061 C171.481182,15.3088621 171.730857,15.4126901 172.014579,15.4126901 L174.023326,15.4126901 C174.568071,15.4126901 174.931234,15.1127425 175.112816,14.5128474 C175.294397,13.9129523 175.634863,13.6130047 176.15691,13.6130047 C176.463329,13.6130047 176.701655,13.7168327 176.894586,13.9129523 C177.087516,14.1206083 177.178307,14.3744101 177.178307,14.6743576 C177.178307,15.3088621 176.883237,15.9318301 176.304445,16.5663346 C175.725654,17.1777661 174.976629,17.4892501 174.068721,17.4892501 Z" id="Path"></path>
                    <path d="M192.374422,9.24069219 L192.374422,13.6591505 C192.374422,14.5936025 191.943166,15.4703723 191.069304,16.266387 C190.195443,17.0624017 189.298883,17.4661772 188.379626,17.4661772 L185.96232,17.4661772 C185.020365,17.4661772 184.123806,17.0624017 183.261293,16.2548506 C182.39878,15.4472994 181.978872,14.5820661 181.978872,13.6706869 L181.978872,9.25222863 C181.978872,8.3408495 182.39878,7.47561615 183.238595,6.66806502 C184.07841,5.8605139 184.986319,5.45673833 185.96232,5.45673833 L188.379626,5.45673833 C189.298883,5.44520189 190.195443,5.82590456 191.069304,6.63345569 C191.943166,7.44100682 192.374422,8.28316728 192.374422,9.24069219 Z M184.067061,9.3214473 L184.067061,13.5553225 C184.067061,13.9360252 184.203248,14.2359727 184.47562,14.4667016 L185.247342,15.1358154 C185.417575,15.2857892 185.655901,15.3550079 185.973669,15.3550079 L188.368277,15.3550079 C188.720092,15.3550079 189.037859,15.228107 189.321581,14.9743052 L189.945768,14.4090194 C190.195443,14.2128998 190.32028,13.9360252 190.32028,13.5783954 L190.32028,9.34452019 C190.32028,8.92920818 190.195443,8.61772417 189.945768,8.42160461 L189.219441,7.83324594 C188.969766,7.62558993 188.686045,7.52176193 188.356928,7.52176193 L186.223344,7.52176193 C185.758041,7.52176193 185.394877,7.63712638 185.145203,7.85631883 L184.441574,8.46775039 C184.191899,8.69847929 184.067061,8.97535396 184.067061,9.3214473 Z" id="Shape"></path>
                    <path d="M212.393801,16.0356581 L216.536132,1.70739381 C216.706365,1.1882538 217.046831,0.934452019 217.580227,0.934452019 C218.090925,0.934452019 218.420042,1.15364447 218.54488,1.59202937 L222.653165,16.1394861 C222.687211,16.2433141 222.69856,16.3471421 222.69856,16.4509701 C222.69856,16.7393812 222.59642,16.993183 222.40349,17.1893026 C222.210559,17.3969586 221.983582,17.4892501 221.733908,17.4892501 C221.189163,17.4892501 220.848697,17.2354483 220.701162,16.7278448 L219.884044,13.8898794 L215.162921,13.8898794 L214.266362,16.9355008 C214.243664,17.0624017 214.141524,17.1893026 213.959943,17.3162035 C213.778361,17.4315679 213.58543,17.5007866 213.369802,17.5007866 C213.063383,17.5007866 212.813708,17.3969586 212.620778,17.1893026 C212.427847,16.9816466 212.325708,16.7278448 212.325708,16.4278972 C212.337056,16.2894599 212.348405,16.162559 212.393801,16.0356581 Z M217.568878,5.77975878 L215.798457,11.77871 L219.282555,11.77871 L217.568878,5.77975878 Z" id="Shape"></path>
                    <path d="M227.499125,16.4394337 L227.499125,6.5065548 C227.499125,6.21814368 227.601265,5.9643419 227.794195,5.75668589 C227.998475,5.54902989 228.236801,5.43366544 228.520522,5.43366544 C228.804243,5.43366544 229.053918,5.53749345 229.246849,5.74514945 C229.451128,5.95280545 229.541919,6.20660724 229.541919,6.5065548 L229.541919,7.81017305 L231.221549,6.35658102 C231.913829,5.75668589 232.594761,5.45673833 233.252994,5.45673833 L234.762392,5.45673833 C235.613556,5.45673833 236.339882,5.76822234 236.941372,6.37965391 C237.542861,6.99108547 237.84928,7.72941793 237.84928,8.59465128 L237.84928,9.15993707 C237.84928,9.45988464 237.74714,9.71368642 237.55421,9.92134242 C237.34993,10.1289984 237.111605,10.2328264 236.827883,10.2328264 C236.544162,10.2328264 236.294487,10.1289984 236.101557,9.93287887 C235.897277,9.72522286 235.806486,9.48295752 235.806486,9.19454641 L235.806486,8.60618773 C235.806486,8.31777661 235.704347,8.06397483 235.511416,7.86785527 C235.307137,7.66019927 235.068811,7.56790771 234.785089,7.56790771 L233.445925,7.56790771 C233.162203,7.56790771 232.844435,7.71788149 232.492621,8.0293655 L229.564617,10.6135291 L229.564617,16.4625066 C229.564617,16.7509177 229.462477,17.0047195 229.258198,17.200839 C229.053918,17.408495 228.815592,17.5007866 228.531871,17.5007866 C228.24815,17.5007866 227.998475,17.3969586 227.805544,17.200839 C227.601265,16.9816466 227.499125,16.7393812 227.499125,16.4394337 Z" id="Path"></path>
                    <path d="M249.890414,17.4892501 L247.836271,17.4892501 C246.985107,17.4892501 246.258781,17.1777661 245.645943,16.5663346 C245.033105,15.954903 244.726686,15.2165705 244.726686,14.3513372 L244.726686,7.55637126 L243.671242,7.55637126 C243.387521,7.55637126 243.137846,7.45254326 242.944915,7.2564237 C242.751985,7.06030414 242.649845,6.80650236 242.649845,6.5065548 C242.649845,6.21814368 242.751985,5.9643419 242.944915,5.76822234 C243.149195,5.56056633 243.387521,5.46827478 243.671242,5.46827478 L244.749383,5.46827478 L244.749383,2.89564761 C244.749383,2.6072365 244.851523,2.35343471 245.044453,2.15731515 C245.248733,1.94965915 245.487059,1.85736759 245.77078,1.85736759 C246.043153,1.85736759 246.281478,1.9611956 246.485758,2.1688516 C246.690037,2.3765076 246.803526,2.61877294 246.803526,2.90718406 L246.803526,5.47981122 L250.945857,5.47981122 C251.21823,5.47981122 251.467905,5.58363922 251.672184,5.79129523 C251.876463,5.99895123 251.978603,6.24121657 251.978603,6.52962769 C251.978603,6.8180388 251.876463,7.07184059 251.672184,7.26796015 C251.467905,7.47561615 251.229579,7.56790771 250.945857,7.56790771 L246.780828,7.56790771 L246.780828,14.3628736 C246.780828,14.6397483 246.882968,14.8935501 247.098596,15.1012061 C247.302875,15.3088621 247.55255,15.4126901 247.836271,15.4126901 L249.845019,15.4126901 C250.389764,15.4126901 250.752927,15.1127425 250.934509,14.5128474 C251.11609,13.9129523 251.456556,13.6130047 251.978603,13.6130047 C252.285022,13.6130047 252.523348,13.7168327 252.716279,13.9129523 C252.909209,14.1206083 253,14.3744101 253,14.6743576 C253,15.3088621 252.70493,15.9318301 252.126138,16.5663346 C251.547347,17.1777661 250.798322,17.4892501 249.890414,17.4892501 Z" id="Path"></path>
                </g>
            </g>
        </g>
    </g>
</svg>