<?xml version="1.0" encoding="UTF-8"?>
<svg width="26px" height="23px" viewBox="0 0 26 23" version="1.1" xmlns="http://www.w3.org/2000/svg" xmlns:xlink="http://www.w3.org/1999/xlink">
    <title>twitter</title>
    <g id="Page-1" stroke="none" stroke-width="1" fill="none" fill-rule="evenodd">
        <g id="twitter" fill="#FFFFFF" fill-rule="nonzero">
            <path d="M26,2.63891136 C25.2517014,3.84847717 24.3165367,4.85646262 23.3812052,5.66283426 C23.3812052,5.86443135 23.3812052,6.06602843 23.3812052,6.46922261 C23.3812052,8.08198261 23.1941722,9.69472585 22.8201064,11.1058888 C22.4460405,12.7186488 21.6977419,14.1298284 20.9496102,15.5409913 C20.0144455,16.9520873 19.0791139,18.1618036 17.9567494,19.3713528 C16.6474522,20.5809019 15.1510552,21.3871564 13.6546582,21.9920146 C11.9712117,22.5968727 10.1007155,23 8.2302025,23 C5.23740859,23 2.43164759,21.9920146 0,20.3793382 C0.374100079,20.3793382 0.748202659,20.3793382 1.30935153,20.3793382 C3.74101162,20.3793382 6.1726567,19.5729164 8.04315291,17.9600727 C6.92085518,17.9600727 5.79855746,17.5569455 4.86329266,16.7505237 C3.92804456,15.9441688 3.36689569,15.1377972 2.99279645,13.9282313 C3.36689569,13.9282313 3.74099494,13.9282313 3.92804456,13.9282313 C4.48919342,13.9282313 4.86330935,13.9282313 5.42445821,13.7266342 C4.30216048,13.5250372 3.17984607,12.7186655 2.43164759,11.71068 C1.30934985,10.7027113 0.935250615,9.49314549 0.935250615,8.08196588 C1.6834491,8.48516008 2.61869721,8.68675715 3.36689569,8.88835421 C2.61869721,8.28357972 2.05754834,7.67878843 1.49639947,6.87240007 C1.12229856,6.06602843 0.748199322,5.05804299 0.748199322,4.05007426 C0.748199322,3.04210554 0.935248941,2.03412009 1.49639947,1.22774678 C2.80574682,3.04210554 4.48921011,4.45326844 6.35970632,5.46123717 C8.2302025,6.46922261 10.2877651,7.07399716 12.5323605,7.27559425 C12.5323605,6.87240007 12.3453109,6.46922261 12.3453109,5.86443135 C12.3453109,4.65486553 12.7194101,3.64688008 13.280559,2.63891136 C13.8417078,1.63093929 14.7769559,1.02615304 15.7122041,0.421368456 C16.6474689,0.0181784574 17.7697166,-0.183417796 18.892081,0.219773038 C20.0142786,0.421366783 20.9496102,1.02615471 21.6977419,1.83253972 C22.8201064,1.63093929 24.1295038,1.22774846 25.0646684,0.421368456 C24.6906026,1.83253972 23.7554379,2.84050845 22.6330734,3.64688008 C23.9424708,3.44529971 25.0646684,3.24370263 26,2.63891136 Z" id="Path"></path>
        </g>
    </g>
</svg>